<?xml version="1.0" encoding="utf-8"?>
<!-- Generator: Adobe Illustrator 19.2.0, SVG Export Plug-In . SVG Version: 6.00 Build 0)  -->
<!DOCTYPE svg PUBLIC "-//W3C//DTD SVG 1.1//EN" "http://www.w3.org/Graphics/SVG/1.1/DTD/svg11.dtd">
<svg version="1.1" id="Layer_1" xmlns="http://www.w3.org/2000/svg" xmlns:xlink="http://www.w3.org/1999/xlink" x="0px" y="0px"
	 viewBox="0 0 150 17" style="enable-background:new 0 0 150 17;" xml:space="preserve">
<style type="text/css">
	.st0{fill:#F26F21;}
</style>
<g>
	<g>
		<g>
			<g>
				<path d="M101.8,8.4v7h10.6V4.6h-1.7v3.8H101.8z M110.7,13.5h-7.1v-3.3h7.1V13.5z"/>
			</g>
			<g>
				<path d="M114.4,15.4h10.7V4.6h-1.9v8.9h-7.1v-9h-1.7V15.4z"/>
			</g>
			<g>
				<path d="M143,15.4h1.8v-9h4.5V4.5h-4.5V1.3H143v3.2h-4.4v1.9h4.4V15.4z"/>
			</g>
			<g>
				<path d="M126.4,15.4h10.8V9.1h-9.1V6.4h9V4.5h-10.7v6.4h8.8v2.6h-8.8C126.4,13.5,126.4,15.4,126.4,15.4z"/>
			</g>
		</g>
		<g>
			<g>
				<path d="M37,15.4h10.7v-1.8h-8.8V6.4h8.8V4.5H37V15.4z"/>
			</g>
			<g>
				<path d="M49.7,15.4h1.7v-9h6.8V4.5h-8.6v10.9H49.7z"/>
			</g>
			<g>
				<path d="M95.6,15.4h1.7v-9h6.8V4.5h-8.6L95.6,15.4L95.6,15.4z"/>
			</g>
			<g>
				<path d="M59.5,15.4h10.7V4.5H59.5v1.9h8.9V9h-8.9V15.4z M68.5,13.5h-7.1v-2.7h7.1V13.5z"/>
			</g>
			<g>
				<path d="M75.8,15.4h1.8v-9h4.5V4.5h-4.5V1.3h-1.8v3.2h-4.4v1.9h4.4V15.4z"/>
			</g>
			<g>
				<path d="M83.4,15.4h10.7v-1.9h-8.9v-2.6h8.9V4.5H83.4V15.4z M92.3,9.1h-7.1V6.4h7.1V9.1z"/>
			</g>
		</g>
	</g>
	<g>
		<polygon class="st0" points="22.1,4.5 18.5,4.5 18.5,4.5 14.8,4.5 14.8,8.1 18.5,8.1 18.5,11.8 14.8,11.8 14.8,15.4 18.5,15.4 
			18.5,15.4 22.1,15.4 25.7,15.4 25.7,11.8 25.7,8.1 25.7,4.5 		"/>
		<polygon class="st0" points="7.6,4.5 4,4.5 0.4,4.5 0.4,8.1 0.4,11.8 0.4,15.4 4,15.4 7.6,15.4 7.6,15.4 11.2,15.4 11.2,11.8 
			7.6,11.8 7.6,8.1 11.2,8.1 11.2,4.5 		"/>
	</g>
</g>
</svg>
